# File created by Blade
# Date/Time:  Mon Sep 22 16:09:39 2014
# Frame Rate: 120.000 fps
#------------------------------------------------------
:FULLY-SPECIFIED
:DEGREES
3110
root 2.406598 36.911066 3.854455 5.403139 -9.749846 1.186408
RightUpLeg 4.281580 -1.077339 -2.448940
RightLeg -5.578089 -0.000000 0.000000
RightFoot -13.436226 -14.016768 15.908718
RightToeBase 13.970187 -0.000000 -0.000000
LeftUpLeg 4.477546 6.246127 1.660962
LeftLeg -3.518908 -0.000000 0.000000
LeftFoot -11.958154 14.621768 -18.292773
LeftToeBase 8.612400 -0.000000 -0.000000
Spine -7.495831 -16.174252 0.729737
RightShoulder -12.448793 -21.490030 -0.489600
RightArm 8.355539 53.263195 91.455706
RightForeArm 89.290435 -0.000000 93.789542
RightHand 21.337011 0.000000 -30.369965
RightHandThumb1 -24.326973 -0.000000 -32.862282
LeftShoulder -30.767205 40.452531 -6.871868
LeftArm 38.925506 12.725568 -74.009220
LeftForeArm 18.146168 0.000000 24.640540
LeftHand -13.232781 -0.000000 -7.595960
LeftHandThumb1 -26.253704 0.000000 33.147579
Head 15.031621 3.263692 10.353032
3111
root 2.405800 36.910850 3.858987 5.418462 -9.826045 1.176853
RightUpLeg 4.267010 -1.067486 -2.448132
RightLeg -5.582312 -0.000000 0.000000
RightFoot -13.423202 -13.985521 15.839923
RightToeBase 14.031366 -0.000000 -0.000000
LeftUpLeg 4.492481 6.272882 1.658784
LeftLeg -3.538148 -0.000000 0.000000
LeftFoot -11.986170 14.664977 -18.348944
LeftToeBase 8.598488 -0.000000 -0.000000
Spine -7.542723 -16.213352 0.758375
RightShoulder -12.463591 -21.478912 -0.463012
RightArm 8.269264 53.268792 91.394331
RightForeArm 89.324733 -0.000000 93.808042
RightHand 21.992535 -0.000000 -30.811111
RightHandThumb1 -24.326973 -0.000000 -32.862282
LeftShoulder -30.751055 40.467531 -6.858405
LeftArm 38.945980 12.734520 -73.983245
LeftForeArm 18.199606 -0.000000 24.414991
LeftHand -13.174677 -0.000000 -7.499392
LeftHandThumb1 -26.253704 0.000000 33.147579
Head 15.086412 3.207427 10.379587
3112
root 2.403379 36.910736 3.863744 5.428488 -9.906221 1.164159
RightUpLeg 4.259676 -1.042838 -2.443211
RightLeg -5.590969 -0.000000 0.000000
RightFoot -13.415867 -13.932665 15.846630
RightToeBase 14.110445 -0.000000 -0.000000
LeftUpLeg 4.500922 6.360850 1.667266
LeftLeg -3.533737 -0.000000 0.000000
LeftFoot -11.994472 14.658511 -18.351874
LeftToeBase 8.581311 -0.000000 -0.000000
Spine -7.580647 -16.244947 0.786210
RightShoulder -12.474501 -21.485362 -0.427092
RightArm 8.171129 53.262933 91.322752
RightForeArm 89.331704 -0.000000 93.834647
RightHand 22.098390 -0.000000 -31.096313
RightHandThumb1 -24.326973 -0.000000 -32.862282
LeftShoulder -30.717022 40.446712 -6.835761
LeftArm 38.910265 12.725608 -73.968687
LeftForeArm 18.285289 -0.000000 24.225675
LeftHand -12.988684 -0.000000 -7.560306
LeftHandThumb1 -26.253704 0.000000 33.147579
Head 15.125864 3.146988 10.386621
3113
root 2.402769 36.910863 3.867707 5.452803 -9.985419 1.153498
RightUpLeg 4.222594 -1.049310 -2.442900
RightLeg -5.575511 -0.000000 0.000000
RightFoot -13.385694 -13.856132 15.816183
RightToeBase 14.066040 -0.000000 -0.000000
LeftUpLeg 4.500427 6.429415 1.670270
LeftLeg -3.540520 -0.000000 0.000000
LeftFoot -12.001432 14.652449 -18.369127
LeftToeBase 8.558629 -0.000000 -0.000000
Spine -7.636432 -16.281421 0.813066
RightShoulder -12.483264 -21.531360 -0.391231
RightArm 8.127786 53.208294 91.266320
RightForeArm 89.503529 -0.000000 93.803559
RightHand 21.963510 -0.000000 -31.052993
RightHandThumb1 -24.326973 -0.000000 -32.862282
LeftShoulder -30.727525 40.470837 -6.817187
LeftArm 38.954793 12.700735 -74.010081
LeftForeArm 18.332270 -0.000000 23.985725
LeftHand -13.098627 0.000000 -7.635730
LeftHandThumb1 -26.253704 0.000000 33.147579
Head 15.155023 3.101194 10.440555
3114
root 2.400333 36.910548 3.871401 5.481860 -10.058962 1.139467
RightUpLeg 4.198437 -1.017769 -2.435722
RightLeg -5.594004 -0.000000 0.000000
RightFoot -13.348175 -13.766013 15.907573
RightToeBase 13.956125 -0.000000 -0.000000
LeftUpLeg 4.493982 6.504751 1.683210
LeftLeg -3.548940 -0.000000 0.000000
LeftFoot -11.994743 14.638228 -18.342324
LeftToeBase 8.577536 -0.000000 -0.000000
Spine -7.694556 -16.320735 0.852223
RightShoulder -12.508888 -21.561864 -0.366212
RightArm 8.095251 53.183001 91.246572
RightForeArm 89.445510 -0.000000 93.765742
RightHand 21.623182 -0.000000 -30.615896
RightHandThumb1 -24.326973 -0.000000 -32.862282
LeftShoulder -30.722506 40.451575 -6.817307
LeftArm 38.889786 12.706489 -73.991240
LeftForeArm 18.328216 -0.000000 23.912419
LeftHand -13.232635 0.000000 -7.620103
LeftHandThumb1 -26.253704 0.000000 33.147579
Head 15.159527 3.056520 10.456661
3115
root 2.400210 36.910908 3.874765 5.518079 -10.147128 1.139551
RightUpLeg 4.152917 -0.970936 -2.446292
RightLeg -5.592820 -0.000000 0.000000
RightFoot -13.330715 -13.728775 15.910897
RightToeBase 13.933622 -0.000000 -0.000000
LeftUpLeg 4.477539 6.592039 1.667186
LeftLeg -3.553761 -0.000000 0.000000
LeftFoot -12.006647 14.665870 -18.364459
LeftToeBase 8.549086 -0.000000 -0.000000
Spine -7.764737 -16.348874 0.887651
RightShoulder -12.539644 -21.578905 -0.323102
RightArm 8.038260 53.142224 91.176796
RightForeArm 89.563211 -0.000000 93.795721
RightHand 21.136150 -0.000000 -30.704415
RightHandThumb1 -24.326973 -0.000000 -32.862282
LeftShoulder -30.727020 40.440443 -6.830886
LeftArm 38.863161 12.683763 -73.987837
LeftForeArm 18.324029 -0.000000 23.769564
LeftHand -13.272085 0.000000 -7.641261
LeftHandThumb1 -26.253704 0.000000 33.147579
Head 15.161006 3.073196 10.490145
3116
root 2.399788 36.910873 3.879792 5.531949 -10.230177 1.132388
RightUpLeg 4.138922 -0.920744 -2.450743
RightLeg -5.596067 -0.000000 0.000000
RightFoot -13.327204 -13.733704 15.806908
RightToeBase 14.030257 -0.000000 -0.000000
LeftUpLeg 4.491267 6.681318 1.665114
LeftLeg -3.566206 -0.000000 0.000000
LeftFoot -12.007539 14.660010 -18.385735
LeftToeBase 8.520202 -0.000000 -0.000000
Spine -7.798612 -16.375325 0.918427
RightShoulder -12.580625 -21.580636 -0.279809
RightArm 8.032385 53.129190 91.159399
RightForeArm 89.578471 0.000000 93.824459
RightHand 21.329869 -0.000000 -30.869989
RightHandThumb1 -24.326973 -0.000000 -32.862282
LeftShoulder -30.749024 40.423307 -6.848961
LeftArm 38.862327 12.669187 -73.976272
LeftForeArm 18.312538 0.000000 23.620411
LeftHand -13.301796 -0.000000 -7.668596
LeftHandThumb1 -26.253704 0.000000 33.147579
Head 15.137632 3.058688 10.523914
3117
root 2.399121 36.910459 3.885165 5.547636 -10.306573 1.128858
RightUpLeg 4.126489 -0.858331 -2.456453
RightLeg -5.610732 -0.000000 0.000000
RightFoot -13.308640 -13.673584 15.891952
RightToeBase 13.967299 -0.000000 -0.000000
LeftUpLeg 4.504618 6.753230 1.658225
LeftLeg -3.584152 -0.000000 0.000000
LeftFoot -12.017563 14.676666 -18.387558
LeftToeBase 8.542803 -0.000000 -0.000000
Spine -7.833736 -16.425044 0.944213
RightShoulder -12.609268 -21.571378 -0.260006
RightArm 8.011373 53.105562 91.136020
RightForeArm 89.641862 -0.000000 93.773037
RightHand 21.100820 -0.000000 -29.950410
RightHandThumb1 -24.326973 -0.000000 -32.862282
LeftShoulder -30.786026 40.380771 -6.857084
LeftArm 38.831889 12.649840 -73.978400
LeftForeArm 18.413957 -0.000000 23.487894
LeftHand -13.270831 -0.000000 -7.889498
LeftHandThumb1 -26.253704 0.000000 33.147579
Head 15.112542 3.028807 10.546050
3118
root 2.399859 36.910358 3.890469 5.555395 -10.377293 1.111780
RightUpLeg 4.124963 -0.800344 -2.450582
RightLeg -5.623098 -0.000000 0.000000
RightFoot -13.293410 -13.653529 15.916391
RightToeBase 14.001216 -0.000000 -0.000000
LeftUpLeg 4.522136 6.822285 1.660098
LeftLeg -3.598454 -0.000000 0.000000
LeftFoot -12.023129 14.716745 -18.360068
LeftToeBase 8.500231 -0.000000 -0.000000
Spine -7.863071 -16.498766 1.005961
RightShoulder -12.641645 -21.646288 -0.220077
RightArm 8.179410 53.082711 91.246369
RightForeArm 89.511424 -0.000000 93.826019
RightHand 21.168557 -0.000000 -30.473023
RightHandThumb1 -24.326973 -0.000000 -32.862282
LeftShoulder -30.836600 40.350614 -6.892922
LeftArm 38.798351 12.619149 -74.012526
LeftForeArm 18.393031 0.000000 23.363055
LeftHand -13.253781 -0.000000 -7.727398
LeftHandThumb1 -26.253704 0.000000 33.147579
Head 15.099617 3.093205 10.556852
